<svg width="12" height="19" viewBox="0 0 12 19" fill="white" xmlns="http://www.w3.org/2000/svg">
<path d="M9.775 0H1.725C0.772656 0 0 0.772656 0 1.725V16.675C0 17.6273 0.772656 18.4 1.725 18.4H9.775C10.7273 18.4 11.5 17.6273 11.5 16.675V1.725C11.5 0.772656 10.7273 0 9.775 0ZM5.75 17.25C5.11391 17.25 4.6 16.7361 4.6 16.1C4.6 15.4639 5.11391 14.95 5.75 14.95C6.38609 14.95 6.9 15.4639 6.9 16.1C6.9 16.7361 6.38609 17.25 5.75 17.25ZM9.775 13.3687C9.775 13.6059 9.58094 13.8 9.34375 13.8H2.15625C1.91906 13.8 1.725 13.6059 1.725 13.3687V2.15625C1.725 1.91906 1.91906 1.725 2.15625 1.725H9.34375C9.58094 1.725 9.775 1.91906 9.775 2.15625V13.3687Z" fill="white"/>
</svg>
