<svg width="257" height="257" viewBox="0 0 257 257" fill="none" xmlns="http://www.w3.org/2000/svg">
<g clip-path="url(#clip0_113_15)">
<path d="M256.812 0.28125H0.8125V256.281H256.812V0.28125Z" fill="white"/>
<path d="M25.7725 16.2812H16.8125V25.2413H25.7725V16.2812Z" fill="black"/>
<path d="M34.7325 16.2812H25.7725V25.2413H34.7325V16.2812Z" fill="black"/>
<path d="M43.6925 16.2812H34.7325V25.2413H43.6925V16.2812Z" fill="black"/>
<path d="M52.6525 16.2812H43.6925V25.2413H52.6525V16.2812Z" fill="black"/>
<path d="M61.6125 16.2812H52.6525V25.2413H61.6125V16.2812Z" fill="black"/>
<path d="M70.5725 16.2812H61.6125V25.2413H70.5725V16.2812Z" fill="black"/>
<path d="M79.5325 16.2812H70.5725V25.2413H79.5325V16.2812Z" fill="black"/>
<path d="M97.4525 16.2812H88.4925V25.2413H97.4525V16.2812Z" fill="black"/>
<path d="M106.413 16.2812H97.4525V25.2413H106.413V16.2812Z" fill="black"/>
<path d="M115.372 16.2812H106.413V25.2413H115.372V16.2812Z" fill="black"/>
<path d="M133.292 16.2812H124.332V25.2413H133.292V16.2812Z" fill="black"/>
<path d="M151.212 16.2812H142.252V25.2413H151.212V16.2812Z" fill="black"/>
<path d="M169.133 16.2812H160.172V25.2413H169.133V16.2812Z" fill="black"/>
<path d="M187.052 16.2812H178.093V25.2413H187.052V16.2812Z" fill="black"/>
<path d="M196.013 16.2812H187.052V25.2413H196.013V16.2812Z" fill="black"/>
<path d="M204.973 16.2812H196.013V25.2413H204.973V16.2812Z" fill="black"/>
<path d="M213.933 16.2812H204.973V25.2413H213.933V16.2812Z" fill="black"/>
<path d="M222.892 16.2812H213.933V25.2413H222.892V16.2812Z" fill="black"/>
<path d="M231.853 16.2812H222.892V25.2413H231.853V16.2812Z" fill="black"/>
<path d="M240.813 16.2812H231.853V25.2413H240.813V16.2812Z" fill="black"/>
<path d="M25.7725 25.2413H16.8125V34.2012H25.7725V25.2413Z" fill="black"/>
<path d="M79.5325 25.2413H70.5725L70.5725 34.2012H79.5325V25.2413Z" fill="black"/>
<path d="M106.413 25.2413H97.4525V34.2012H106.413V25.2413Z" fill="black"/>
<path d="M115.372 25.2413H106.413V34.2012H115.372V25.2413Z" fill="black"/>
<path d="M133.292 25.2413H124.332V34.2012H133.292V25.2413Z" fill="black"/>
<path d="M151.212 25.2413H142.252V34.2012H151.212V25.2413Z" fill="black"/>
<path d="M169.133 25.2413H160.172V34.2012H169.133V25.2413Z" fill="black"/>
<path d="M187.052 25.2413H178.093V34.2012H187.052V25.2413Z" fill="black"/>
<path d="M240.813 25.2413H231.853V34.2012H240.813V25.2413Z" fill="black"/>
<path d="M25.7725 34.2012H16.8125V43.1613H25.7725V34.2012Z" fill="black"/>
<path d="M43.6925 34.2012H34.7325V43.1613H43.6925V34.2012Z" fill="black"/>
<path d="M52.6525 34.2012H43.6925V43.1613H52.6525V34.2012Z" fill="black"/>
<path d="M61.6125 34.2012H52.6525V43.1613H61.6125V34.2012Z" fill="black"/>
<path d="M79.5325 34.2012H70.5725V43.1613H79.5325V34.2012Z" fill="black"/>
<path d="M97.4525 34.2012H88.4925V43.1613H97.4525V34.2012Z" fill="black"/>
<path d="M106.413 34.2012H97.4525V43.1613H106.413V34.2012Z" fill="black"/>
<path d="M115.372 34.2012H106.413V43.1613H115.372V34.2012Z" fill="black"/>
<path d="M124.332 34.2012H115.372V43.1613H124.332V34.2012Z" fill="black"/>
<path d="M133.292 34.2012H124.332V43.1613H133.292V34.2012Z" fill="black"/>
<path d="M142.252 34.2012H133.292V43.1613H142.252V34.2012Z" fill="black"/>
<path d="M160.172 34.2012H151.212L151.213 43.1613H160.172V34.2012Z" fill="black"/>
<path d="M169.133 34.2012H160.172V43.1613H169.133V34.2012Z" fill="black"/>
<path d="M187.052 34.2012H178.093V43.1613H187.052V34.2012Z" fill="black"/>
<path d="M204.973 34.2012H196.013V43.1613H204.973V34.2012Z" fill="black"/>
<path d="M213.933 34.2012H204.973V43.1613H213.933V34.2012Z" fill="black"/>
<path d="M222.892 34.2012H213.933V43.1613H222.892V34.2012Z" fill="black"/>
<path d="M240.813 34.2012H231.853V43.1613H240.813V34.2012Z" fill="black"/>
<path d="M25.7725 43.1613H16.8125V52.1213H25.7725V43.1613Z" fill="black"/>
<path d="M43.6925 43.1613H34.7325V52.1213H43.6925V43.1613Z" fill="black"/>
<path d="M52.6525 43.1613H43.6925V52.1213H52.6525V43.1613Z" fill="black"/>
<path d="M61.6125 43.1613H52.6525V52.1213H61.6125V43.1613Z" fill="black"/>
<path d="M79.5325 43.1613H70.5725V52.1213H79.5325V43.1613Z" fill="black"/>
<path d="M106.413 43.1613H97.4525V52.1213H106.413V43.1613Z" fill="black"/>
<path d="M115.372 43.1613H106.413V52.1213H115.372V43.1613Z" fill="black"/>
<path d="M133.292 43.1613H124.332V52.1213H133.292V43.1613Z" fill="black"/>
<path d="M169.133 43.1613H160.172V52.1213H169.133V43.1613Z" fill="black"/>
<path d="M187.052 43.1613H178.093V52.1213H187.052V43.1613Z" fill="black"/>
<path d="M204.973 43.1613H196.013V52.1213H204.973V43.1613Z" fill="black"/>
<path d="M213.933 43.1613H204.973V52.1213H213.933V43.1613Z" fill="black"/>
<path d="M222.892 43.1613H213.933V52.1213H222.892V43.1613Z" fill="black"/>
<path d="M240.813 43.1613H231.853V52.1213H240.813V43.1613Z" fill="black"/>
<path d="M25.7725 52.1213H16.8125V61.0813H25.7725V52.1213Z" fill="black"/>
<path d="M43.6925 52.1213H34.7325V61.0813H43.6925V52.1213Z" fill="black"/>
<path d="M52.6525 52.1213H43.6925V61.0813H52.6525V52.1213Z" fill="black"/>
<path d="M61.6125 52.1213H52.6525V61.0813H61.6125V52.1213Z" fill="black"/>
<path d="M79.5325 52.1213H70.5725V61.0813H79.5325V52.1213Z" fill="black"/>
<path d="M124.332 52.1213H115.372V61.0813H124.332V52.1213Z" fill="black"/>
<path d="M133.292 52.1213H124.332V61.0813H133.292V52.1213Z" fill="black"/>
<path d="M142.252 52.1213H133.292V61.0813H142.252V52.1213Z" fill="black"/>
<path d="M151.212 52.1213H142.252V61.0813H151.212V52.1213Z" fill="black"/>
<path d="M160.172 52.1213H151.212V61.0813H160.172V52.1213Z" fill="black"/>
<path d="M169.133 52.1213H160.172V61.0813H169.133V52.1213Z" fill="black"/>
<path d="M187.052 52.1213H178.093V61.0813H187.052V52.1213Z" fill="black"/>
<path d="M204.973 52.1213H196.013V61.0813H204.973V52.1213Z" fill="black"/>
<path d="M213.933 52.1213H204.973V61.0813H213.933V52.1213Z" fill="black"/>
<path d="M222.892 52.1213H213.933V61.0813H222.892V52.1213Z" fill="black"/>
<path d="M240.813 52.1213H231.853V61.0813H240.813V52.1213Z" fill="black"/>
<path d="M25.7725 61.0813H16.8125V70.0413H25.7725V61.0813Z" fill="black"/>
<path d="M79.5325 61.0813H70.5725V70.0413H79.5325V61.0813Z" fill="black"/>
<path d="M106.413 61.0813H97.4525V70.0413H106.413V61.0813Z" fill="black"/>
<path d="M124.332 61.0813H115.372V70.0413H124.332V61.0813Z" fill="black"/>
<path d="M133.292 61.0813H124.332V70.0413H133.292V61.0813Z" fill="black"/>
<path d="M160.172 61.0813H151.212L151.213 70.0413H160.172V61.0813Z" fill="black"/>
<path d="M187.052 61.0813H178.093V70.0413H187.052V61.0813Z" fill="black"/>
<path d="M240.813 61.0813H231.853V70.0413H240.813V61.0813Z" fill="black"/>
<path d="M25.7725 70.0413H16.8125V79.0012H25.7725V70.0413Z" fill="black"/>
<path d="M34.7325 70.0412L25.7725 70.0413V79.0012H34.7325V70.0412Z" fill="black"/>
<path d="M43.6925 70.0412H34.7325V79.0012H43.6925V70.0412Z" fill="black"/>
<path d="M52.6525 70.0412H43.6925V79.0012H52.6525V70.0412Z" fill="black"/>
<path d="M61.6125 70.0412H52.6525V79.0012H61.6125V70.0412Z" fill="black"/>
<path d="M70.5725 70.0413L61.6125 70.0412V79.0012H70.5725L70.5725 70.0413Z" fill="black"/>
<path d="M79.5325 70.0413H70.5725L70.5725 79.0012H79.5325V70.0413Z" fill="black"/>
<path d="M97.4525 70.0413L88.4925 70.0412V79.0012H97.4525V70.0413Z" fill="black"/>
<path d="M115.372 70.0413H106.413V79.0012H115.372V70.0413Z" fill="black"/>
<path d="M133.292 70.0413H124.332V79.0012H133.292V70.0413Z" fill="black"/>
<path d="M151.213 70.0413L142.252 70.0412V79.0012H151.212L151.213 70.0413Z" fill="black"/>
<path d="M169.133 70.0412L160.172 70.0413V79.0012H169.133V70.0412Z" fill="black"/>
<path d="M187.052 70.0413H178.093V79.0012H187.052V70.0413Z" fill="black"/>
<path d="M196.013 70.0412L187.052 70.0413V79.0012H196.013V70.0412Z" fill="black"/>
<path d="M204.973 70.0412H196.013V79.0012H204.973V70.0412Z" fill="black"/>
<path d="M213.933 70.0412H204.973V79.0012H213.933V70.0412Z" fill="black"/>
<path d="M222.892 70.0412H213.933V79.0012H222.892V70.0412Z" fill="black"/>
<path d="M231.853 70.0413L222.892 70.0412V79.0012H231.853V70.0413Z" fill="black"/>
<path d="M240.813 70.0413H231.853V79.0012H240.813V70.0413Z" fill="black"/>
<path d="M97.4525 79.0012H88.4925V87.9612H97.4525V79.0012Z" fill="black"/>
<path d="M106.413 79.0012H97.4525V87.9612H106.413V79.0012Z" fill="black"/>
<path d="M115.372 79.0012H106.413V87.9612H115.372V79.0012Z" fill="black"/>
<path d="M124.332 79.0012H115.372V87.9612H124.332V79.0012Z" fill="black"/>
<path d="M133.292 79.0012H124.332V87.9612H133.292V79.0012Z" fill="black"/>
<path d="M160.172 79.0012H151.212L151.213 87.9612H160.172V79.0012Z" fill="black"/>
<path d="M25.7725 87.9612H16.8125V96.9212H25.7725V87.9612Z" fill="black"/>
<path d="M43.6925 87.9612H34.7325V96.9212H43.6925V87.9612Z" fill="black"/>
<path d="M70.5725 87.9612H61.6125V96.9212H70.5725V87.9612Z" fill="black"/>
<path d="M79.5325 87.9612H70.5725V96.9212H79.5325V87.9612Z" fill="black"/>
<path d="M106.413 87.9612H97.4525V96.9212H106.413V87.9612Z" fill="black"/>
<path d="M115.372 87.9612H106.413V96.9212H115.372V87.9612Z" fill="black"/>
<path d="M124.332 87.9612H115.372V96.9212H124.332V87.9612Z" fill="black"/>
<path d="M142.252 87.9612H133.292V96.9212H142.252V87.9612Z" fill="black"/>
<path d="M151.213 87.9612H142.252V96.9212H151.212L151.213 87.9612Z" fill="black"/>
<path d="M178.093 87.9612H169.133V96.9212H178.093V87.9612Z" fill="black"/>
<path d="M187.052 87.9612H178.093V96.9212H187.052V87.9612Z" fill="black"/>
<path d="M222.892 87.9612H213.933V96.9212H222.892V87.9612Z" fill="black"/>
<path d="M240.813 87.9612H231.853V96.9212H240.813V87.9612Z" fill="black"/>
<path d="M25.7725 96.9212H16.8125V105.881H25.7725V96.9212Z" fill="black"/>
<path d="M52.6525 96.9212H43.6925V105.881H52.6525V96.9212Z" fill="black"/>
<path d="M70.5725 96.9212H61.6125V105.881H70.5725V96.9212Z" fill="black"/>
<path d="M97.4525 96.9212H88.4925V105.881H97.4525V96.9212Z" fill="black"/>
<path d="M151.212 96.9212H142.252V105.881H151.212V96.9212Z" fill="black"/>
<path d="M160.172 96.9212H151.212V105.881H160.172V96.9212Z" fill="black"/>
<path d="M187.052 96.9212H178.093V105.881H187.052V96.9212Z" fill="black"/>
<path d="M196.013 96.9212H187.052V105.881H196.013V96.9212Z" fill="black"/>
<path d="M213.933 96.9212H204.973V105.881H213.933V96.9212Z" fill="black"/>
<path d="M34.7325 105.881H25.7725V114.841H34.7325V105.881Z" fill="black"/>
<path d="M43.6925 105.881H34.7325V114.841H43.6925V105.881Z" fill="black"/>
<path d="M52.6525 105.881H43.6925V114.841H52.6525V105.881Z" fill="black"/>
<path d="M61.6125 105.881H52.6525V114.841H61.6125V105.881Z" fill="black"/>
<path d="M70.5725 105.881H61.6125V114.841H70.5725V105.881Z" fill="black"/>
<path d="M79.5325 105.881H70.5725V114.841H79.5325V105.881Z" fill="black"/>
<path d="M88.4925 105.881H79.5325V114.841H88.4925V105.881Z" fill="black"/>
<path d="M97.4525 105.881H88.4925V114.841H97.4525V105.881Z" fill="black"/>
<path d="M133.292 105.881H124.332V114.841H133.292V105.881Z" fill="black"/>
<path d="M142.252 105.881H133.292V114.841H142.252V105.881Z" fill="black"/>
<path d="M160.172 105.881H151.212L151.213 114.841H160.172V105.881Z" fill="black"/>
<path d="M169.133 105.881H160.172V114.841H169.133V105.881Z" fill="black"/>
<path d="M187.052 105.881H178.093V114.841H187.052V105.881Z" fill="black"/>
<path d="M196.013 105.881H187.052V114.841H196.013V105.881Z" fill="black"/>
<path d="M204.973 105.881H196.013V114.841H204.973V105.881Z" fill="black"/>
<path d="M231.853 105.881H222.892V114.841H231.853V105.881Z" fill="black"/>
<path d="M61.6125 114.841H52.6525V123.801H61.6125V114.841Z" fill="black"/>
<path d="M70.5725 114.841H61.6125V123.801H70.5725V114.841Z" fill="black"/>
<path d="M88.4925 114.841H79.5325V123.801H88.4925V114.841Z" fill="black"/>
<path d="M115.372 114.841H106.413V123.801H115.372V114.841Z" fill="black"/>
<path d="M124.332 114.841H115.372V123.801H124.332V114.841Z" fill="black"/>
<path d="M133.292 114.841H124.332V123.801H133.292V114.841Z" fill="black"/>
<path d="M160.172 114.841H151.213V123.801H160.172V114.841Z" fill="black"/>
<path d="M187.052 114.841H178.093V123.801H187.052V114.841Z" fill="black"/>
<path d="M204.973 114.841H196.013V123.801H204.973V114.841Z" fill="black"/>
<path d="M231.853 114.841H222.892V123.801H231.853V114.841Z" fill="black"/>
<path d="M25.7725 123.801H16.8125V132.761H25.7725V123.801Z" fill="black"/>
<path d="M34.7325 123.801H25.7725V132.761H34.7325V123.801Z" fill="black"/>
<path d="M61.6125 123.801H52.6525V132.761H61.6125V123.801Z" fill="black"/>
<path d="M70.5725 123.801H61.6125V132.761H70.5725V123.801Z" fill="black"/>
<path d="M79.5325 123.801H70.5725V132.761H79.5325V123.801Z" fill="black"/>
<path d="M133.292 123.801H124.332V132.761H133.292V123.801Z" fill="black"/>
<path d="M142.252 123.801H133.292V132.761H142.252V123.801Z" fill="black"/>
<path d="M151.213 123.801H142.252V132.761H151.212L151.213 123.801Z" fill="black"/>
<path d="M160.172 123.801H151.213L151.212 132.761H160.172V123.801Z" fill="black"/>
<path d="M204.973 123.801H196.013V132.761H204.973V123.801Z" fill="black"/>
<path d="M213.933 123.801H204.973V132.761H213.933V123.801Z" fill="black"/>
<path d="M222.892 123.801H213.933V132.761H222.892V123.801Z" fill="black"/>
<path d="M231.853 123.801H222.892V132.761H231.853V123.801Z" fill="black"/>
<path d="M240.813 123.801H231.853V132.761H240.813V123.801Z" fill="black"/>
<path d="M25.7725 132.761H16.8125V141.721H25.7725V132.761Z" fill="black"/>
<path d="M43.6925 132.761H34.7325V141.721H43.6925V132.761Z" fill="black"/>
<path d="M52.6525 132.761H43.6925V141.721H52.6525V132.761Z" fill="black"/>
<path d="M70.5725 132.761H61.6125V141.721H70.5725V132.761Z" fill="black"/>
<path d="M142.252 132.761H133.292V141.721H142.252V132.761Z" fill="black"/>
<path d="M178.093 132.761H169.133V141.721H178.093V132.761Z" fill="black"/>
<path d="M187.052 132.761H178.093V141.721H187.052V132.761Z" fill="black"/>
<path d="M213.933 132.761H204.973V141.721H213.933V132.761Z" fill="black"/>
<path d="M240.813 132.761H231.853V141.721H240.813V132.761Z" fill="black"/>
<path d="M25.7725 141.721H16.8125V150.681H25.7725V141.721Z" fill="black"/>
<path d="M34.7325 141.721H25.7725V150.681H34.7325V141.721Z" fill="black"/>
<path d="M61.6125 141.721H52.6525V150.681H61.6125V141.721Z" fill="black"/>
<path d="M70.5725 141.721H61.6125V150.681H70.5725V141.721Z" fill="black"/>
<path d="M79.5325 141.721H70.5725V150.681H79.5325V141.721Z" fill="black"/>
<path d="M115.372 141.721H106.413V150.681H115.372V141.721Z" fill="black"/>
<path d="M124.332 141.721H115.372V150.681H124.332V141.721Z" fill="black"/>
<path d="M160.172 141.721H151.213V150.681H160.172V141.721Z" fill="black"/>
<path d="M196.013 141.721H187.052V150.681H196.013V141.721Z" fill="black"/>
<path d="M204.973 141.721H196.013V150.681H204.973V141.721Z" fill="black"/>
<path d="M231.853 141.721H222.892V150.681H231.853V141.721Z" fill="black"/>
<path d="M240.813 141.721H231.853V150.681H240.813V141.721Z" fill="black"/>
<path d="M43.6925 150.681L34.7325 150.681V159.641H43.6925V150.681Z" fill="black"/>
<path d="M106.413 150.681L97.4525 150.681V159.641H106.413V150.681Z" fill="black"/>
<path d="M115.372 150.681H106.413V159.641H115.372V150.681Z" fill="black"/>
<path d="M133.292 150.681L124.332 150.681V159.641H133.292V150.681Z" fill="black"/>
<path d="M142.252 150.681H133.292V159.641H142.252V150.681Z" fill="black"/>
<path d="M151.213 150.681L142.252 150.681V159.641H151.212L151.213 150.681Z" fill="black"/>
<path d="M160.172 150.681H151.213L151.212 159.641H160.172V150.681Z" fill="black"/>
<path d="M169.133 150.681L160.172 150.681V159.641H169.133V150.681Z" fill="black"/>
<path d="M178.093 150.681H169.133V159.641H178.093V150.681Z" fill="black"/>
<path d="M196.013 150.681H187.052V159.641H196.013V150.681Z" fill="black"/>
<path d="M204.973 150.681H196.013V159.641H204.973V150.681Z" fill="black"/>
<path d="M213.933 150.681L204.973 150.681V159.641H213.933V150.681Z" fill="black"/>
<path d="M222.892 150.681L213.933 150.681V159.641H222.892V150.681Z" fill="black"/>
<path d="M52.6525 159.641H43.6925V168.601H52.6525V159.641Z" fill="black"/>
<path d="M70.5725 159.641H61.6125V168.601H70.5725V159.641Z" fill="black"/>
<path d="M79.5325 159.641H70.5725V168.601H79.5325V159.641Z" fill="black"/>
<path d="M97.4525 159.641H88.4925V168.601H97.4525V159.641Z" fill="black"/>
<path d="M106.413 159.641H97.4525V168.601H106.413V159.641Z" fill="black"/>
<path d="M124.332 159.641H115.372V168.601H124.332V159.641Z" fill="black"/>
<path d="M142.252 159.641H133.292V168.601H142.252V159.641Z" fill="black"/>
<path d="M169.133 159.641H160.172V168.601H169.133V159.641Z" fill="black"/>
<path d="M178.093 159.641H169.133V168.601H178.093V159.641Z" fill="black"/>
<path d="M187.052 159.641H178.093V168.601H187.052V159.641Z" fill="black"/>
<path d="M196.013 159.641H187.052V168.601H196.013V159.641Z" fill="black"/>
<path d="M204.973 159.641H196.013V168.601H204.973V159.641Z" fill="black"/>
<path d="M213.933 159.641H204.973V168.601H213.933V159.641Z" fill="black"/>
<path d="M231.853 159.641H222.892V168.601H231.853V159.641Z" fill="black"/>
<path d="M240.813 159.641H231.853V168.601H240.813V159.641Z" fill="black"/>
<path d="M106.413 168.601H97.4525V177.561H106.413V168.601Z" fill="black"/>
<path d="M115.372 168.601H106.413V177.561H115.372V168.601Z" fill="black"/>
<path d="M142.252 168.601H133.292V177.561H142.252V168.601Z" fill="black"/>
<path d="M160.172 168.601H151.213V177.561H160.172V168.601Z" fill="black"/>
<path d="M169.133 168.601H160.172V177.561H169.133V168.601Z" fill="black"/>
<path d="M204.973 168.601H196.013V177.561H204.973V168.601Z" fill="black"/>
<path d="M213.933 168.601H204.973V177.561H213.933V168.601Z" fill="black"/>
<path d="M222.892 168.601H213.933V177.561H222.892V168.601Z" fill="black"/>
<path d="M25.7725 177.561H16.8125V186.521H25.7725V177.561Z" fill="black"/>
<path d="M34.7325 177.561H25.7725V186.521H34.7325V177.561Z" fill="black"/>
<path d="M43.6925 177.561H34.7325V186.521H43.6925V177.561Z" fill="black"/>
<path d="M52.6525 177.561H43.6925V186.521H52.6525V177.561Z" fill="black"/>
<path d="M61.6125 177.561H52.6525V186.521H61.6125V177.561Z" fill="black"/>
<path d="M70.5725 177.561H61.6125V186.521H70.5725V177.561Z" fill="black"/>
<path d="M79.5325 177.561H70.5725V186.521H79.5325V177.561Z" fill="black"/>
<path d="M106.413 177.561H97.4525V186.521H106.413V177.561Z" fill="black"/>
<path d="M115.372 177.561H106.413V186.521H115.372V177.561Z" fill="black"/>
<path d="M124.332 177.561H115.372V186.521H124.332V177.561Z" fill="black"/>
<path d="M133.292 177.561H124.332V186.521H133.292V177.561Z" fill="black"/>
<path d="M142.252 177.561H133.292V186.521H142.252V177.561Z" fill="black"/>
<path d="M151.213 177.561H142.252V186.521H151.212L151.213 177.561Z" fill="black"/>
<path d="M169.133 177.561H160.172V186.521H169.133V177.561Z" fill="black"/>
<path d="M187.052 177.561H178.093V186.521H187.052V177.561Z" fill="black"/>
<path d="M204.973 177.561H196.013V186.521H204.973V177.561Z" fill="black"/>
<path d="M25.7725 186.521H16.8125V195.481H25.7725V186.521Z" fill="black"/>
<path d="M79.5325 186.521H70.5725L70.5725 195.481H79.5325V186.521Z" fill="black"/>
<path d="M97.4525 186.521H88.4925V195.481H97.4525V186.521Z" fill="black"/>
<path d="M106.413 186.521H97.4525V195.481H106.413V186.521Z" fill="black"/>
<path d="M115.372 186.521H106.413V195.481H115.372V186.521Z" fill="black"/>
<path d="M124.332 186.521H115.372V195.481H124.332V186.521Z" fill="black"/>
<path d="M142.252 186.521H133.292V195.481H142.252V186.521Z" fill="black"/>
<path d="M160.172 186.521H151.212L151.213 195.481H160.172V186.521Z" fill="black"/>
<path d="M169.133 186.521H160.172V195.481H169.133V186.521Z" fill="black"/>
<path d="M204.973 186.521H196.013V195.481H204.973V186.521Z" fill="black"/>
<path d="M222.892 186.521H213.933V195.481H222.892V186.521Z" fill="black"/>
<path d="M231.853 186.521H222.892V195.481H231.853V186.521Z" fill="black"/>
<path d="M25.7725 195.481H16.8125V204.441H25.7725V195.481Z" fill="black"/>
<path d="M43.6925 195.481H34.7325V204.441H43.6925V195.481Z" fill="black"/>
<path d="M52.6525 195.481H43.6925V204.441H52.6525V195.481Z" fill="black"/>
<path d="M61.6125 195.481H52.6525V204.441H61.6125V195.481Z" fill="black"/>
<path d="M79.5325 195.481H70.5725V204.441H79.5325V195.481Z" fill="black"/>
<path d="M115.372 195.481H106.413V204.441H115.372V195.481Z" fill="black"/>
<path d="M160.172 195.481H151.213V204.441H160.172V195.481Z" fill="black"/>
<path d="M169.133 195.481H160.172V204.441H169.133V195.481Z" fill="black"/>
<path d="M178.093 195.481H169.133V204.441H178.093V195.481Z" fill="black"/>
<path d="M187.052 195.481H178.093V204.441H187.052V195.481Z" fill="black"/>
<path d="M196.013 195.481H187.052V204.441H196.013V195.481Z" fill="black"/>
<path d="M204.973 195.481H196.013V204.441H204.973V195.481Z" fill="black"/>
<path d="M213.933 195.481H204.973V204.441H213.933V195.481Z" fill="black"/>
<path d="M222.892 195.481H213.933V204.441H222.892V195.481Z" fill="black"/>
<path d="M231.853 195.481H222.892V204.441H231.853V195.481Z" fill="black"/>
<path d="M25.7725 204.441H16.8125V213.401H25.7725V204.441Z" fill="black"/>
<path d="M43.6925 204.441H34.7325V213.401H43.6925V204.441Z" fill="black"/>
<path d="M52.6525 204.441H43.6925V213.401H52.6525V204.441Z" fill="black"/>
<path d="M61.6125 204.441H52.6525V213.401H61.6125V204.441Z" fill="black"/>
<path d="M79.5325 204.441H70.5725V213.401H79.5325V204.441Z" fill="black"/>
<path d="M106.413 204.441H97.4525V213.401H106.413V204.441Z" fill="black"/>
<path d="M115.372 204.441H106.413V213.401H115.372V204.441Z" fill="black"/>
<path d="M124.332 204.441H115.372V213.401H124.332V204.441Z" fill="black"/>
<path d="M151.213 204.441H142.252V213.401H151.212L151.213 204.441Z" fill="black"/>
<path d="M160.172 204.441H151.213L151.212 213.401H160.172V204.441Z" fill="black"/>
<path d="M222.892 204.441H213.933V213.401H222.892V204.441Z" fill="black"/>
<path d="M240.813 204.441H231.853V213.401H240.813V204.441Z" fill="black"/>
<path d="M25.7725 213.401H16.8125V222.361H25.7725V213.401Z" fill="black"/>
<path d="M43.6925 213.401H34.7325V222.361H43.6925V213.401Z" fill="black"/>
<path d="M52.6525 213.401H43.6925V222.361H52.6525V213.401Z" fill="black"/>
<path d="M61.6125 213.401H52.6525V222.361H61.6125V213.401Z" fill="black"/>
<path d="M79.5325 213.401H70.5725V222.361H79.5325V213.401Z" fill="black"/>
<path d="M97.4525 213.401H88.4925V222.361H97.4525V213.401Z" fill="black"/>
<path d="M115.372 213.401H106.413V222.361H115.372V213.401Z" fill="black"/>
<path d="M151.212 213.401H142.252V222.361H151.212V213.401Z" fill="black"/>
<path d="M213.933 213.401H204.973V222.361H213.933V213.401Z" fill="black"/>
<path d="M25.7725 222.361H16.8125V231.321H25.7725V222.361Z" fill="black"/>
<path d="M79.5325 222.361H70.5725V231.321H79.5325V222.361Z" fill="black"/>
<path d="M106.413 222.361H97.4525V231.321H106.413V222.361Z" fill="black"/>
<path d="M142.252 222.361H133.292V231.321H142.252V222.361Z" fill="black"/>
<path d="M169.133 222.361H160.172V231.321H169.133V222.361Z" fill="black"/>
<path d="M196.013 222.361H187.052V231.321H196.013V222.361Z" fill="black"/>
<path d="M213.933 222.361H204.973V231.321H213.933V222.361Z" fill="black"/>
<path d="M222.892 222.361H213.933V231.321H222.892V222.361Z" fill="black"/>
<path d="M25.7725 231.321H16.8125V240.281H25.7725V231.321Z" fill="black"/>
<path d="M34.7325 231.321H25.7725V240.281H34.7325V231.321Z" fill="black"/>
<path d="M43.6925 231.321H34.7325V240.281H43.6925V231.321Z" fill="black"/>
<path d="M52.6525 231.321H43.6925V240.281H52.6525V231.321Z" fill="black"/>
<path d="M61.6125 231.321H52.6525V240.281H61.6125V231.321Z" fill="black"/>
<path d="M70.5725 231.321H61.6125V240.281H70.5725L70.5725 231.321Z" fill="black"/>
<path d="M79.5325 231.321H70.5725L70.5725 240.281H79.5325V231.321Z" fill="black"/>
<path d="M97.4525 231.321H88.4925V240.281H97.4525V231.321Z" fill="black"/>
<path d="M106.413 231.321H97.4525V240.281H106.413V231.321Z" fill="black"/>
<path d="M115.372 231.321H106.413V240.281H115.372V231.321Z" fill="black"/>
<path d="M133.292 231.321H124.332V240.281H133.292V231.321Z" fill="black"/>
<path d="M142.252 231.321H133.292V240.281H142.252V231.321Z" fill="black"/>
<path d="M151.212 231.321H142.252V240.281H151.212V231.321Z" fill="black"/>
<path d="M178.093 231.321H169.133V240.281H178.093V231.321Z" fill="black"/>
<path d="M187.052 231.321H178.093V240.281H187.052V231.321Z" fill="black"/>
<path d="M196.013 231.321H187.052V240.281H196.013V231.321Z" fill="black"/>
<path d="M204.973 231.321H196.013V240.281H204.973V231.321Z" fill="black"/>
<path d="M222.892 231.321H213.933V240.281H222.892V231.321Z" fill="black"/>
<path d="M240.813 231.321H231.853V240.281H240.813V231.321Z" fill="black"/>
</g>
<defs>
<clipPath id="clip0_113_15">
<rect width="256" height="256" fill="white" transform="translate(0.8125 0.28125)"/>
</clipPath>
</defs>
</svg>
